<!--?xml version="1.0" encoding="utf-8"?-->
<!-- Generator: Adobe Illustrator 15.1.0, SVG Export Plug-In . SVG Version: 6.00 Build 0)  -->

<svg version="1.1" id="_x32_" xmlns="http://www.w3.org/2000/svg" xmlns:xlink="http://www.w3.org/1999/xlink" x="0px" y="0px" width="512px" height="512px" viewBox="0 0 512 512" style="width: 256px; height: 256px; opacity: 1;" xml:space="preserve">
<g>
	<path class="st0" d="M322.031,79.875H27.719C12.406,79.875,0,92.281,0,107.594V339c0,15.313,12.406,27.719,27.719,27.719h117.813
		v6.172c0,15.297-12.406,27.719-27.719,27.719H77.094v32.609h59.625h76.313h59.625v-32.609h-40.719
		c-15.313,0-27.719-12.422-27.719-27.719v-6.172h117.813c15.313,0,27.719-12.406,27.719-27.719V107.594
		C349.75,92.281,337.344,79.875,322.031,79.875z M310.641,305.313c0,5.109-4.141,9.25-9.234,9.25H48.344
		c-5.094,0-9.219-4.141-9.219-9.25V128.219c0-5.094,4.125-9.219,9.219-9.219h253.063c5.094,0,9.234,4.125,9.234,9.219V305.313z"></path>
	<path class="st0" d="M481.953,78.781h-81.234c-16.594,0-30.063,13.453-30.063,30.063v293.234c0,16.594,13.469,30.047,30.063,30.047
		h81.234c16.594,0,30.047-13.453,30.047-30.047V108.844C512,92.234,498.547,78.781,481.953,78.781z M441.328,343.781
		c-12.672,0-22.953-10.281-22.953-22.953c0-12.703,10.281-22.984,22.953-22.984c12.688,0,22.969,10.281,22.969,22.984
		C464.297,333.5,454.016,343.781,441.328,343.781z M477.547,200.688h-70.672v-14.125h70.672V200.688z M477.547,158.281h-70.672
		v-14.125h70.672V158.281z"></path>
</g>
</svg>
